# xmcd
#
# Track frame offsets: 
#        150
#        13510
#        27327
#        37837
#        49072
#        59321
#        71786
#        82374
#        93850
#        105304
#        116586
#        127756
#
# Disc length: 1900 seconds
#
# Revision: 0
# Processed by: cddbd v1.5.2PL0 Copyright (c) Steve Scherf et al.
# Submitted via: ExactAudioCopy v0.95b3
#
DISCID=93076a0c
DTITLE=Brenda Lee  - Bye Bye Blues
DYEAR=1900
DGENRE=
TTITLE0=Taste Of Honey
TTITLE1=Good Life
TTITLE2=Flowers On The Wall
TTITLE3=Shadow Of Your Smile
TTITLE4=Remember Me When (We Made These Memories)
TTITLE5=Softly As I Leave You
TTITLE6=Bye Bye Blues
TTITLE7=Make The World Go Away
TTITLE8=September In The Rain
TTITLE9=Rusty Bells
TTITLE10=What A Difference A Day Made
TTITLE11=Yesterday
EXTD=
EXTT0=
EXTT1=
EXTT2=
EXTT3=
EXTT4=
EXTT5=
EXTT6=
EXTT7=
EXTT8=
EXTT9=
EXTT10=
EXTT11=
PLAYORDER=
